<svg width="96" height="96" viewBox="0 0 96 96" fill="none" xmlns="http://www.w3.org/2000/svg" role="img" aria-labelledby="title desc">
  <title id="title">OnlyPaws Logo</title>
  <desc id="desc">Ein warmes Herz mit blauer Pfote als OnlyPaws Symbol.</desc>
  <defs>
    <linearGradient id="outerHeart" x1="25" y1="14" x2="72" y2="84" gradientUnits="userSpaceOnUse">
      <stop stop-color="#FFCB78"/>
      <stop offset="0.48" stop-color="#F2B64A"/>
      <stop offset="1" stop-color="#F58E70"/>
    </linearGradient>
    <linearGradient id="innerPaw" x1="35" y1="32" x2="62" y2="69" gradientUnits="userSpaceOnUse">
      <stop stop-color="#A8EAFE"/>
      <stop offset="1" stop-color="#5E9FC7"/>
    </linearGradient>
    <filter id="shadow" x="12" y="10" width="74" height="78" filterUnits="userSpaceOnUse" color-interpolation-filters="sRGB">
      <feDropShadow dx="0" dy="5" stdDeviation="4" flood-color="#2E2520" flood-opacity="0.18"/>
    </filter>
  </defs>
  <g filter="url(#shadow)">
    <path d="M48 81.5C46.77 81.5 45.69 81.1 44.78 80.35C35.72 72.93 20.5 59.82 20.5 42.72C20.5 31.58 28.58 23.2 38.65 23.2C42.72 23.2 46.14 24.7 48 27.12C49.86 24.7 53.28 23.2 57.35 23.2C67.42 23.2 75.5 31.58 75.5 42.72C75.5 59.82 60.28 72.93 51.22 80.35C50.31 81.1 49.23 81.5 48 81.5Z" fill="url(#outerHeart)"/>
    <path d="M48 72.45C46.96 72.45 45.98 72.11 45.15 71.45C38.57 66.16 28.2 56.83 28.2 43.72C28.2 35.55 33.95 29.4 41.18 29.4C44.57 29.4 47.08 30.96 48 33.12C48.92 30.96 51.43 29.4 54.82 29.4C62.05 29.4 67.8 35.55 67.8 43.72C67.8 56.83 57.43 66.16 50.85 71.45C50.02 72.11 49.04 72.45 48 72.45Z" fill="#FFFDF9"/>
    <path d="M34.05 57.75C30.35 53.17 27.95 48.33 27.95 42.95C27.95 35.42 33.02 29.3 40 27.95" stroke="#FFFDF9" stroke-width="4.4" stroke-linecap="round"/>
    <path d="M62 27.95C68.98 29.3 74.05 35.42 74.05 42.95C74.05 48.33 71.65 53.17 67.95 57.75" stroke="#FFFDF9" stroke-width="4.4" stroke-linecap="round"/>
  </g>
  <g filter="url(#shadow)">
    <ellipse cx="37.6" cy="45.3" rx="5.9" ry="8" transform="rotate(-26 37.6 45.3)" fill="url(#innerPaw)"/>
    <ellipse cx="45.1" cy="38.75" rx="6.1" ry="8.4" transform="rotate(-7 45.1 38.75)" fill="url(#innerPaw)"/>
    <ellipse cx="52.9" cy="38.75" rx="6.1" ry="8.4" transform="rotate(7 52.9 38.75)" fill="url(#innerPaw)"/>
    <ellipse cx="60.4" cy="45.3" rx="5.9" ry="8" transform="rotate(26 60.4 45.3)" fill="url(#innerPaw)"/>
    <path d="M49 49.35C54.04 49.35 61.05 57.23 61.05 63.12C61.05 67.54 57.41 69.87 53.56 68.37C51.13 67.42 46.87 67.42 44.44 68.37C40.59 69.87 36.95 67.54 36.95 63.12C36.95 57.23 43.96 49.35 49 49.35Z" fill="url(#innerPaw)"/>
    <path d="M42.1 57.35C43.65 55.15 46.18 53.1 49 53.1C51.82 53.1 54.35 55.15 55.9 57.35" stroke="#D9F5FF" stroke-width="2.4" stroke-linecap="round" opacity="0.62"/>
    <path d="M35.35 47.8C36.75 49.34 39.14 50.3 41 48.98" stroke="#3E8DB4" stroke-width="2" stroke-linecap="round" opacity="0.32"/>
    <path d="M62.65 47.8C61.25 49.34 58.86 50.3 57 48.98" stroke="#3E8DB4" stroke-width="2" stroke-linecap="round" opacity="0.32"/>
  </g>
</svg>
