<svg width="96" height="96" viewBox="0 0 96 96" fill="none" xmlns="http://www.w3.org/2000/svg" role="img" aria-labelledby="title desc">
  <title id="title">OnlyPaws Logo</title>
  <desc id="desc">A warm heart-shaped OnlyPaws mark with a blue paw in the center.</desc>
  <defs>
    <linearGradient id="heartGradient" x1="22" y1="15" x2="78" y2="84" gradientUnits="userSpaceOnUse">
      <stop stop-color="#FFD166"/>
      <stop offset="0.5" stop-color="#F2B543"/>
      <stop offset="1" stop-color="#FF8A65"/>
    </linearGradient>
    <linearGradient id="pawGradient" x1="33" y1="32" x2="63" y2="70" gradientUnits="userSpaceOnUse">
      <stop stop-color="#9DF2FF"/>
      <stop offset="1" stop-color="#5FA8D3"/>
    </linearGradient>
    <filter id="softShadow" x="8" y="8" width="80" height="82" filterUnits="userSpaceOnUse" color-interpolation-filters="sRGB">
      <feDropShadow dx="0" dy="5" stdDeviation="5" flood-color="#191919" flood-opacity="0.16"/>
    </filter>
  </defs>
  <rect width="96" height="96" rx="24" fill="#FFF8EE"/>
  <g filter="url(#softShadow)">
    <path
      d="M48 79.5C46.9 79.5 45.9 79.15 45.02 78.45C36.1 71.3 21 58.55 21 42.3C21 31.85 28.62 24 38.2 24C42.58 24 46.24 25.62 48 28.08C49.76 25.62 53.42 24 57.8 24C67.38 24 75 31.85 75 42.3C75 58.55 59.9 71.3 50.98 78.45C50.1 79.15 49.1 79.5 48 79.5Z"
      fill="url(#heartGradient)"
    />
    <path
      d="M48 70.5C46.86 70.5 45.78 70.13 44.88 69.4C38.7 64.36 29 55.55 29 43.3C29 35.9 34.14 30.2 40.7 30.2C44.36 30.2 47.02 32.05 48 34.45C48.98 32.05 51.64 30.2 55.3 30.2C61.86 30.2 67 35.9 67 43.3C67 55.55 57.3 64.36 51.12 69.4C50.22 70.13 49.14 70.5 48 70.5Z"
      fill="white"
      fill-opacity="0.92"
    />
    <path
      d="M34.2 58.7C30.1 53.95 27.4 48.74 27.4 42.46C27.4 35.25 31.98 29.37 38.32 27.72"
      stroke="white"
      stroke-width="4"
      stroke-linecap="round"
      opacity="0.92"
    />
    <path
      d="M61.8 27.72C68.07 29.38 72.6 35.2 72.6 42.46C72.6 48.72 69.91 53.93 65.82 58.66"
      stroke="white"
      stroke-width="4"
      stroke-linecap="round"
      opacity="0.92"
    />
  </g>
  <g filter="url(#softShadow)">
    <ellipse cx="37.7" cy="45.2" rx="5.9" ry="8" transform="rotate(-28 37.7 45.2)" fill="url(#pawGradient)"/>
    <ellipse cx="45.3" cy="38.4" rx="6.2" ry="8.6" transform="rotate(-8 45.3 38.4)" fill="url(#pawGradient)"/>
    <ellipse cx="53.7" cy="38.4" rx="6.2" ry="8.6" transform="rotate(8 53.7 38.4)" fill="url(#pawGradient)"/>
    <ellipse cx="61.3" cy="45.2" rx="5.9" ry="8" transform="rotate(28 61.3 45.2)" fill="url(#pawGradient)"/>
    <path
      d="M49.5 49.2C54.4 49.2 61.2 57.08 61.2 63.05C61.2 67.38 57.76 69.5 53.96 68.08C51.4 67.12 47.6 67.12 45.04 68.08C41.24 69.5 37.8 67.38 37.8 63.05C37.8 57.08 44.6 49.2 49.5 49.2Z"
      fill="url(#pawGradient)"
    />
    <path
      d="M40.1 48.8C39.16 50.04 37.24 50.02 35.8 48.75C34.36 47.48 33.97 45.45 34.91 44.21"
      stroke="#3E8DB4"
      stroke-width="2.2"
      stroke-linecap="round"
      opacity="0.38"
    />
    <path
      d="M58.9 48.8C59.84 50.04 61.76 50.02 63.2 48.75C64.64 47.48 65.03 45.45 64.09 44.21"
      stroke="#3E8DB4"
      stroke-width="2.2"
      stroke-linecap="round"
      opacity="0.38"
    />
  </g>
</svg>
